<svg xmlns="http://www.w3.org/2000/svg" xmlns:xlink="http://www.w3.org/1999/xlink" width="1136.814" height="322.313" viewBox="0 0 1136.814 322.313"><defs><clipPath id="a"><rect width="1136.814" height="322.313" fill="none"/></clipPath></defs><path d="M607.372,285.684v5.939h11.917v5.9H607.372v9.256h-7.637v-27h21.173v5.9Z" fill="#007b2b"/><g clip-path="url(#a)"><path d="M636.295,299.607H632.13v7.172h-7.637v-27h12.342A15.409,15.409,0,0,1,643.2,281a9.822,9.822,0,0,1,4.262,13.884,9.256,9.256,0,0,1-3.915,3.413l5.823,8.484h-8.176Zm3.625-12.766a5.268,5.268,0,0,0-3.548-1.041H632.13v7.9h4.242a5.337,5.337,0,0,0,3.548-1.021,3.62,3.62,0,0,0,1.2-2.912,3.68,3.68,0,0,0-1.2-2.931" fill="#007b2b"/><path d="M671.12,301.535H659.7l-2.121,5.245h-7.79l11.917-27h7.521l11.955,27h-7.945Zm-2.237-5.631-3.471-8.639-3.47,8.639Z" fill="#007b2b"/><path d="M709.031,279.784v27h-6.286l-11.917-14.385V306.78h-7.483v-27h6.287l11.917,14.385V279.784Z" fill="#007b2b"/><path d="M720.272,305.527a13.4,13.4,0,0,1-5.3-4.995,14.6,14.6,0,0,1,0-14.5,13.4,13.4,0,0,1,5.3-4.994,15.96,15.96,0,0,1,7.617-1.794,16.354,16.354,0,0,1,6.672,1.311,12.837,12.837,0,0,1,4.937,3.78l-4.86,4.4a8,8,0,0,0-6.363-3.162,7.852,7.852,0,0,0-3.915.964,6.679,6.679,0,0,0-2.66,2.719,9.057,9.057,0,0,0,0,8.06,6.685,6.685,0,0,0,2.66,2.719,7.862,7.862,0,0,0,3.915.964,8,8,0,0,0,6.363-3.162l4.86,4.4a12.834,12.834,0,0,1-4.937,3.779,16.354,16.354,0,0,1-6.672,1.312,15.982,15.982,0,0,1-7.617-1.793" fill="#007b2b"/><path d="M768.576,279.784v27h-7.637V296.252H750.527V306.78H742.89v-27h7.637v10.143h10.412V279.784Z" fill="#007b2b"/><rect width="7.637" height="26.996" transform="translate(773.974 279.784)" fill="#007b2b"/><path d="M790.172,306.51a15.663,15.663,0,0,1-5.015-2.16l2.507-5.631a16.2,16.2,0,0,0,4.2,1.929,16.016,16.016,0,0,0,4.705.732q4.4,0,4.4-2.2a1.82,1.82,0,0,0-1.254-1.716,23.086,23.086,0,0,0-4.03-1.177,38.285,38.285,0,0,1-5.09-1.407,8.568,8.568,0,0,1-3.51-2.41A6.515,6.515,0,0,1,785.62,288a7.749,7.749,0,0,1,1.35-4.455A9.041,9.041,0,0,1,791,280.4a16.578,16.578,0,0,1,6.576-1.158,23.212,23.212,0,0,1,5.244.6,16.038,16.038,0,0,1,4.551,1.755l-2.352,5.669a15.725,15.725,0,0,0-7.482-2.082,6.27,6.27,0,0,0-3.316.675,2.022,2.022,0,0,0-1.041,1.755,1.738,1.738,0,0,0,1.233,1.619,22.332,22.332,0,0,0,3.973,1.119,37.2,37.2,0,0,1,5.109,1.407,8.807,8.807,0,0,1,3.51,2.392,6.383,6.383,0,0,1,1.485,4.454,7.6,7.6,0,0,1-1.349,4.4,9.194,9.194,0,0,1-4.05,3.143,16.377,16.377,0,0,1-6.557,1.177,24.986,24.986,0,0,1-6.362-.81" fill="#007b2b"/><rect width="7.637" height="26.996" transform="translate(812 279.784)" fill="#007b2b"/><path d="M850.758,279.784v27h-6.286l-11.917-14.385V306.78h-7.483v-27h6.287l11.917,14.385V279.784Z" fill="#007b2b"/><path d="M874.245,292.7h6.749v11.184a17.6,17.6,0,0,1-5.322,2.545,21.2,21.2,0,0,1-6.017.887,16.087,16.087,0,0,1-7.636-1.793,13.375,13.375,0,0,1-5.322-4.995,14.6,14.6,0,0,1,0-14.5,13.3,13.3,0,0,1,5.361-4.994,16.483,16.483,0,0,1,7.751-1.794,17.3,17.3,0,0,1,6.789,1.272,13.111,13.111,0,0,1,5.013,3.665l-4.859,4.4a8.568,8.568,0,0,0-6.557-3.008,7.261,7.261,0,0,0-7.713,7.713,8.156,8.156,0,0,0,.964,3.991,6.913,6.913,0,0,0,2.7,2.739,7.911,7.911,0,0,0,3.972.983,9.748,9.748,0,0,0,4.127-.887Z" fill="#007b2b"/><path d="M920.87,279.784v27h-6.286l-11.917-14.385V306.78h-7.483v-27h6.287l11.917,14.385V279.784Z" fill="#007b2b"/><path d="M947.943,300.879v5.9H926.268v-27h21.173v5.9H933.828v4.55h11.994v5.708H933.828v4.937Z" fill="#007b2b"/><path d="M957.931,285.839h-8.292v-6.055H973.82v6.055h-8.253v20.941h-7.636Z" fill="#007b2b"/><path d="M1018.364,279.784l-8.755,27h-8.176l-5.168-16.429-5.4,16.429H982.69l-8.754-27H981.8l5.438,17.239,5.708-17.239h7.019l5.438,17.394,5.669-17.394Z" fill="#007b2b"/><path d="M1026.713,305.508a13.8,13.8,0,0,1,0-24.452,17.239,17.239,0,0,1,15.387,0,13.8,13.8,0,0,1,0,24.452,17.239,17.239,0,0,1-15.387,0m11.4-5.477a6.94,6.94,0,0,0,2.622-2.719,8.9,8.9,0,0,0,0-8.06,6.94,6.94,0,0,0-2.622-2.719,7.59,7.59,0,0,0-7.4,0,6.922,6.922,0,0,0-2.623,2.719,8.906,8.906,0,0,0,0,8.06,6.922,6.922,0,0,0,2.623,2.719,7.59,7.59,0,0,0,7.4,0" fill="#007b2b"/><path d="M1065.22,299.607h-4.165v7.172h-7.637v-27h12.342a15.409,15.409,0,0,1,6.363,1.215,9.822,9.822,0,0,1,4.262,13.884,9.255,9.255,0,0,1-3.915,3.413l5.823,8.484h-8.176Zm3.625-12.766a5.268,5.268,0,0,0-3.548-1.041h-4.242v7.9h4.242a5.337,5.337,0,0,0,3.548-1.021,3.62,3.62,0,0,0,1.2-2.912,3.68,3.68,0,0,0-1.2-2.931" fill="#007b2b"/><path d="M1092.371,296.984l-2.854,3.047v6.749h-7.559v-27h7.559v11.222l10.452-11.222h8.407l-11.03,11.955,11.608,15.041h-8.87Z" fill="#007b2b"/><path d="M1124.368,102a12.194,12.194,0,0,1-12.241-12.241,12.492,12.492,0,0,1,3.566-8.847,12.088,12.088,0,0,1,8.675-3.6,12.419,12.419,0,0,1,12.447,12.451,12.04,12.04,0,0,1-3.685,8.678A12.483,12.483,0,0,1,1124.368,102Zm0-22.5a10.151,10.151,0,0,0,0,20.3,10.3,10.3,0,0,0,7.229-2.939,9.862,9.862,0,0,0,3.022-7.107A10.223,10.223,0,0,0,1124.368,79.5Z" fill="#007b2b"/><path d="M1119.677,82.426h6.438a3.8,3.8,0,0,1,4.008,4,3.4,3.4,0,0,1-1.972,3.366c1.05.513,1.618.949,1.618,3.586,0,2.068,0,2.581.568,2.817v.373h-2.946a10.448,10.448,0,0,1-.283-2.853c0-1.931-.107-2.68-2.074-2.68h-2.748V96.57h-2.609Zm5.725,6.227c1.383,0,2.057-.532,2.057-1.928a1.689,1.689,0,0,0-1.857-1.855h-3.316v3.783Z" fill="#007b2b"/><path d="M167.635,322.313a86.966,86.966,0,1,0-86.966-86.967,86.966,86.966,0,0,0,86.966,86.967" fill="#007b2b"/><path d="M167.566,0l-51.09,51.711L283.437,219.476l51.695-50.163h0Z" fill="#007b2b"/><path d="M167.566,0,0,168.55l51.7,50.163L217.36,52.249,167.567,0Z" fill="#007b2b"/><path d="M492.824,162.172c7.093-4.458,15.686-9.588,22.827-13.658,3.683-2.1,6.178-5.488,4.113-8.91-2.181-3.614-6.373-2.613-8.974-1.148-7.787,4.388-11.941,6.92-19.19,10.931-5.857,3.24-8.91,4.3-10.53,1.121-1.8-3.525,2.741-6.48,14.844-13.677,9.381-5.58,10.765-6.137,23.458-13.558,11.672-6.824,11.919-30.588-1.291-39.062-12.174-7.81-26.84-8.324-40.886-4.568-20.114,5.378-24.3,24.993-26.572,42.18a217.053,217.053,0,0,0-2.074,36.134c.26,16.246.784,29.852,4.14,47.594,3.083,16.3,9.54,36.449,25.264,36.449h22c5,0,8.1-6.1,10.4-9.493,12.6-18.507,16.076-52.963,9.007-63.649-2.262-3.42-8.7-3.333-10.565.156-4.482,8.367,1.179,19.73-2.584,28.857-2.489,6.972-12.245,11.644-19.66,7.407-7.78-4.446-10.281-17.073-6.48-27.354a31.972,31.972,0,0,1,12.751-15.752M475.113,132.9c-5.71-2.81-4.237-26.4-1.134-30.4,6.469-8.354,29.7,7.888,27.3,18.1a8.446,8.446,0,0,1-4.1,5.17c-7.919,5.127-16.635,10.057-22.079,7.136Z" fill="#007b2b"/><path d="M603.445,187.6c-.976,12.612-1.909,23.109-5.514,34.528-1.821,5.767-6.449,12.948-11.777,16.514-8.329,5.574-20.562,4.973-28.256,1.431-16.466-7.579-18.85-36.053-21.061-52.918-2.814-21.467-3.987-44.662-2.99-61.175a129.661,129.661,0,0,1,5.732-30.525c1.632-4.916,4.331-10.675,8.973-14.137,4.361-3.253,11.977-4.419,18.068-4.34,9.6.125,25.548.712,36.546,7.186,13.742,8.09,4.653,29.048-6.258,39.116a219.342,219.342,0,0,1-18.948,15.746c-4.235,3.029-8.173,5.514-10.686,4.475-4.766-1.97-3.9-6.572-1.588-10.977,3.738-7.131,19.607-18.113,10.564-29.269-3.538-4.186-10.131-5.956-14.407-4.073-5.33,2.4-8.168,11.955-9.3,18.416-2.99,17.014-3.171,29.665-.677,46.3,2.047,13.659,7.4,25.9,14.852,31.2,4.283,3.049,10.555,3.177,13.594.066,5.754-5.891,7.436-15.023,6.023-22.866-1.25-6.939-.983-16.377,7.614-14.483a5.95,5.95,0,0,1,2.559,1.215c2.67,2.227,8.436,9.234,6.941,28.562" fill="#007b2b"/><path d="M856.172,187.6c-.976,12.612-1.909,23.109-5.514,34.528-1.821,5.767-6.449,12.948-11.777,16.514-8.329,5.574-20.562,4.973-28.256,1.431-16.466-7.579-18.85-36.053-21.061-52.918-2.814-21.467-3.987-44.662-2.99-61.175a129.661,129.661,0,0,1,5.732-30.525c1.632-4.916,4.331-10.675,8.973-14.137,4.361-3.253,11.977-4.419,18.068-4.34,9.6.125,25.548.712,36.546,7.186,13.742,8.09,4.653,29.048-6.258,39.116a219.342,219.342,0,0,1-18.948,15.746c-4.235,3.029-8.173,5.514-10.686,4.475-4.766-1.97-3.9-6.572-1.588-10.977,3.738-7.131,19.607-18.113,10.564-29.269-3.538-4.186-10.131-5.956-14.407-4.073-5.33,2.4-8.168,11.955-9.3,18.416-2.99,17.014-3.171,29.665-.677,46.3,2.047,13.659,7.4,25.9,14.852,31.2,4.283,3.049,10.555,3.177,13.594.066,5.754-5.891,7.436-15.023,6.023-22.866-1.25-6.939-.983-16.377,7.614-14.483a5.95,5.95,0,0,1,2.559,1.215c2.67,2.227,8.436,9.234,6.941,28.562" fill="#007b2b"/><path d="M620.409,79.044c5.748-2.764,15.047-1.481,20.042,3.019,7.11,6.406,7.547,14.672,8.52,22.587,2.329,18.957,5.792,34.887,16.41,40.172,8.785,4.373,14.612-6.223,11.507-15.019-3.382-9.579-10.845-17.113-16.3-25.73-5.549-8.764-5.549-17.009,2.072-23.6,6.44-5.566,18.544-2.882,22.457,2.557,6,8.34,4.878,25.581,4.677,36.851-.346,19.466-.311,97.621-.653,114.51-.143,7.088-7.558,8.4-14.474,8.337-19.907-.18-13.646-20.427-14.045-40.6-.312-15.733-4.19-33.162-11.612-47.558-4.08-7.09-12.359-13.059-12.359-7.331,0,22.646.181,70.314.749,85.654.192,5.193-2.051,8.816-6.725,9.565-9.859,1.582-17.012-2.388-15.706-14.695,3.526-33.224,5.115-59.929,2.67-90.038-1.184-14.575-2.319-28.371-3.141-42.079,0,0-.693-13.426,5.912-16.6" fill="#007b2b"/><path d="M776.665,114.245c-1.62-14.581-4.736-28.912-20.125-34.683-11.485-4.307-25.232-2.431-31.592.537-7.477,3.489-12.245,9.567-15.327,17.688-8.972,23.647-7.818,63.082-3.075,91.838,3.262,19.785,9.013,49.833,24.509,52.478,5.109.872,15.2,1.122,20.686-.748,4.54-1.547,7.4-5.007,9.295-8.35,6.407-11.339,11.426-30.1,13.675-46.036,2.577-18.266,2.951-30.728,2.951-53.284,0-4.986-.431-14.349-1-19.44m-15.514,38.67c-.562,8.061-1.06,13.42-2.243,22.35-.958,7.232-1.185,16.617-6.256,20.319-7.166,5.231-10.88-3.328-13.856-13.018-1.594-5.189-2.981-9.549-3.815-13.758-.811-4.093-.686-7.084-4.71-11.231-4.238-4.369-10.107-6.087-10.965-14.392-1.586-15.357,3.266-40.987,17.257-39.052,22.655,3.133,25.4,26.686,25.086,39.594-.055,2.3-.338,6.893-.5,9.188" fill="#007b2b"/><path d="M937.362,129.409c-3.611-19.562-7.958-30.271-15.077-40.97-6.545-9.836-12.028-11.207-20.129-11.456-6.655-.205-15.046,3.046-20.374,18.28-16.366,46.8-17.073,86.926-18.279,134.631-.133,5.285.836,12.191,5.1,12.388,6.884.319,9.626-1.924,9.645-12.836.013-8.1-1.523-16.834,2.074-23.409,4.93-8.891,17.231-13.413,26.1-13.114,6.077.2,7.742,5.316,5.07,11.1-3.9,8.657-10.99,12.735-10.755,25.808.049,2.751.8,8.759,4.5,10.764,4.391,2.375,11.4,1.682,21.216,1.682,7.664,0,11.144-1.2,12.15-8.692,3.468-25.815,7.727-55.58-1.246-104.181m-51.219,7.453c1.05-5.764,3.161-11.556,4.736-14,3.864-5.981,8.228-10.767,12.475-2.007,4.6,9.484,5.681,17.511,6.74,26.457.911,7.7,1.471,11.105-3.94,13.137-23.985,9.007-24.186,4.511-21.381-16.028m1.466,39.854c-3.3.928-5.752-1.85-2.4-4.524,6.013-4.8,11.465-6.885,20.189-8.381a24.018,24.018,0,0,1,7.134-.062c4.923.779,4.268,5.452,1.215,6.106" fill="#007b2b"/><path d="M1104.6,129.409c-3.611-19.562-7.958-30.271-15.077-40.97-6.545-9.836-12.028-11.207-20.129-11.456-6.655-.205-15.046,3.046-20.374,18.28-16.366,46.8-17.073,86.926-18.278,134.631-.134,5.285.835,12.191,5.1,12.388,6.884.319,9.626-1.924,9.645-12.836.014-8.1-1.523-16.834,2.074-23.409,4.93-8.891,17.231-13.413,26.1-13.114,6.077.2,7.742,5.316,5.07,11.1-3.9,8.657-10.99,12.735-10.755,25.808.049,2.751.8,8.759,4.5,10.764,4.392,2.375,11.4,1.682,21.216,1.682,7.664,0,11.144-1.2,12.15-8.692,3.468-25.815,7.727-55.58-1.246-104.181m-51.219,7.453c1.05-5.764,3.161-11.556,4.737-14,3.863-5.981,8.227-10.767,12.474-2.007,4.6,9.484,5.681,17.511,6.74,26.457.911,7.7,1.471,11.105-3.94,13.137-23.984,9.007-24.186,4.511-21.381-16.028m1.466,39.854c-3.3.928-5.752-1.85-2.4-4.524,6.012-4.8,11.464-6.885,20.188-8.381a24.018,24.018,0,0,1,7.134-.062c4.923.779,4.268,5.452,1.215,6.106" fill="#007b2b"/><path d="M1016.618,81.283c18.668,4.391,11.652,29.971,2.489,39.4-7.524,7.741-22.271,8.23-18.035-3.49.84-2.325,1.746-5.477,2.587-8.842,3.142-12.568-19.6-21.518-29.921-15.1-6.505,4.642-5.437,11.638-1.39,17.434,4.113,5.888,9.347,10.748,13.8,14.695,13.165,11.665,26.948,23.9,34.208,40.417,4.984,11.34,5.341,23.668,4.61,34.893-1.37,21.061-3.8,31.443-11.963,37.511-4.717,3.507-17.074,4.228-25.8,4.119-22.431-.28-33.46-3.832-37.216-20.137-3.506-15.224-1.6-31.611,2.941-46.967,1.312-4.435,3.669-9.5,7.522-12.185,12.769-6.87,23.9,17.381,27.483,27.2,3.009,8.252,9.177,20.9,2.822,23.206-5.057,1.834-7.8-3.73-10.033-9.287-2.18-5.418-7.843-8.322-11.609-2.211-4.694,7.461-6.245,19.642,1.138,25.577,9.1,7.317,25.063,2.433,31.62-6.719,8.045-11.231,7.123-31.775-2.622-43.413-6.157-7.353-12.108-12.3-20.429-21.092s-13.057-14.578-18.648-26.159c-7.269-15.059-15.4-42.872,1.328-49.134,0,0,16.17-8.879,55.113.28" fill="#007b2b"/><path d="M349.229,94.5c.993-9.432,4.246-17.53,13.725-17.383,18.044.279,20,0,35,0h31c15.795,0,18.9,26.885,15.948,39.29-3.3,13.841-12.215,30.169-17.971,27.09a6.069,6.069,0,0,1-3.547-5.531c-.753-10.443,8.687-23.41-.254-32.528-2.6-2.652-8.388-5.664-11.319-1.67-2.688,3.663.493,13.325.875,18.276a164.381,164.381,0,0,1-.063,29.663c-2.506,27.628-3.326,56.39.777,83.875.26,4.5-.826,6.318-5.058,6.422-5.1.126-16.279.2-22.129.211-4.651.009-6.068-.435-8.213-2.729-4.432-5.39-4.062-14.623-3.569-21.361.952-13,4.927-26.229,8.129-40.379,1.785-7.886,14.853-54.857,5.638-67.26-2.182-2.937-5.39-5.338-10.7-3.23-4.817,1.914-5.264,8.281-3.693,12.828,1.779,6.149,8.65,11.406,6.521,17.49-2.806,8.017-10.877,3.9-15.371-.076a26.363,26.363,0,0,1-2.005-1.892c-3.969-4.324-15.912-20.31-13.723-41.106" fill="#007b2b"/></g></svg>