<?xml version="1.0" encoding="UTF-8"?>
<svg xmlns="http://www.w3.org/2000/svg" xmlns:xlink="http://www.w3.org/1999/xlink" width="209.79pt" height="55.16pt" viewBox="0 0 209.79 55.16" version="1.1">
<defs>
<clipPath id="clip1">
  <path d="M 90 47 L 98 47 L 98 55.160156 L 90 55.160156 Z M 90 47 "/>
</clipPath>
<clipPath id="clip2">
  <path d="M 112 47 L 120 47 L 120 55.160156 L 112 55.160156 Z M 112 47 "/>
</clipPath>
<clipPath id="clip3">
  <path d="M 134 47 L 142 47 L 142 55.160156 L 134 55.160156 Z M 134 47 "/>
</clipPath>
<clipPath id="clip4">
  <path d="M 184 47 L 192 47 L 192 55.160156 L 184 55.160156 Z M 184 47 "/>
</clipPath>
<clipPath id="clip5">
  <path d="M 202 48 L 209.789063 48 L 209.789063 55 L 202 55 Z M 202 48 "/>
</clipPath>
<clipPath id="clip6">
  <path d="M 0 2 L 58 2 L 58 55.160156 L 0 55.160156 Z M 0 2 "/>
</clipPath>
<clipPath id="clip7">
  <path d="M 5 0 L 209.789063 0 L 209.789063 46 L 5 46 Z M 5 0 "/>
</clipPath>
<clipPath id="clip8">
  <path d="M 0 0 L 209.789063 0 L 209.789063 53 L 0 53 Z M 0 0 "/>
</clipPath>
<clipPath id="clip9">
  <path d="M 0 0 L 60 0 L 60 55.160156 L 0 55.160156 Z M 0 0 "/>
</clipPath>
</defs>
<g id="surface1">
<path style=" stroke:none;fill-rule:evenodd;fill:rgb(0%,52.198792%,24.699402%);fill-opacity:1;" d="M 59.195313 54.984375 L 59.195313 52.582031 L 61.644531 52.582031 L 61.644531 50.992188 L 59.195313 50.992188 L 59.195313 49.757813 L 62.261719 49.757813 L 62.261719 48.171875 L 56.96875 48.171875 L 56.96875 54.984375 L 59.195313 54.984375 "/>
<path style=" stroke:none;fill-rule:evenodd;fill:rgb(0%,52.198792%,24.699402%);fill-opacity:1;" d="M 67.574219 51.101563 C 67.53125 51.101563 67.507813 51.101563 67.488281 51.101563 L 66.605469 51.101563 L 66.605469 49.757813 C 66.605469 49.757813 67.332031 49.757813 67.574219 49.757813 C 67.617188 49.757813 67.640625 49.757813 67.640625 49.757813 C 68.148438 49.757813 68.546875 49.980469 68.546875 50.464844 C 68.546875 50.925781 68.191406 51.101563 67.574219 51.101563 Z M 70.59375 53.574219 C 70.59375 52.207031 70.175781 52.027344 69.449219 51.765625 C 70.242188 51.542969 70.59375 50.882813 70.59375 50.113281 C 70.59375 48.789063 69.847656 48.171875 67.574219 48.171875 C 67.332031 48.171875 64.355469 48.171875 64.355469 48.171875 L 64.355469 54.984375 L 66.605469 54.984375 L 66.605469 52.601563 L 67.289063 52.601563 C 67.378906 52.601563 67.488281 52.601563 67.574219 52.601563 C 68.347656 52.667969 68.480469 52.976563 68.480469 53.792969 C 68.480469 54.386719 68.523438 54.828125 68.589844 54.984375 L 70.839844 54.984375 L 70.839844 54.765625 C 70.574219 54.765625 70.59375 54.453125 70.59375 53.574219 "/>
<path style=" stroke:none;fill-rule:evenodd;fill:rgb(0%,52.198792%,24.699402%);fill-opacity:1;" d="M 76.042969 52.667969 C 75.6875 52.667969 75.335938 52.667969 75.335938 52.667969 L 76.019531 50.222656 C 76.019531 50.222656 76.019531 50.242188 76.042969 50.265625 C 76.128906 50.597656 76.726563 52.667969 76.726563 52.667969 C 76.726563 52.667969 76.371094 52.667969 76.042969 52.667969 Z M 77.164063 48.171875 C 77.164063 48.171875 76.59375 48.171875 76.042969 48.171875 C 75.46875 48.171875 74.894531 48.171875 74.894531 48.171875 L 72.46875 54.984375 L 74.652344 54.984375 L 74.894531 54.082031 C 74.894531 54.082031 75.46875 54.082031 76.042969 54.082031 C 76.570313 54.082031 77.121094 54.082031 77.121094 54.082031 L 77.386719 54.984375 L 79.613281 54.984375 L 77.164063 48.171875 "/>
<path style=" stroke:none;fill-rule:evenodd;fill:rgb(0%,52.198792%,24.699402%);fill-opacity:1;" d="M 83.671875 48.171875 L 81.578125 48.171875 L 81.578125 54.984375 L 83.714844 54.984375 L 83.714844 52.824219 L 83.625 51.28125 L 86.050781 54.984375 L 88.148438 54.984375 L 88.148438 48.171875 L 86.007813 48.171875 L 86.007813 50.332031 L 86.09375 51.875 L 83.671875 48.171875 "/>
<g clip-path="url(#clip1)" clip-rule="nonzero">
<path style=" stroke:none;fill-rule:evenodd;fill:rgb(0%,52.198792%,24.699402%);fill-opacity:1;" d="M 97.03125 50.773438 C 96.855469 49.03125 95.6875 47.996094 93.613281 47.996094 C 91.71875 47.996094 90.21875 49.363281 90.21875 51.566406 C 90.21875 53.773438 91.585938 55.160156 93.835938 55.160156 C 95.621094 55.160156 96.878906 54.101563 97.078125 52.339844 L 94.9375 52.339844 C 94.847656 53 94.519531 53.484375 93.789063 53.484375 C 92.667969 53.484375 92.445313 52.601563 92.445313 51.632813 C 92.445313 50.332031 92.929688 49.648438 93.703125 49.648438 C 94.410156 49.648438 94.847656 50.066406 94.914063 50.773438 L 97.03125 50.773438 "/>
</g>
<path style=" stroke:none;fill-rule:evenodd;fill:rgb(0%,52.198792%,24.699402%);fill-opacity:1;" d="M 101.464844 54.984375 L 101.464844 52.339844 L 103.582031 52.339844 L 103.582031 54.984375 L 105.785156 54.984375 L 105.785156 48.171875 L 103.582031 48.171875 L 103.582031 50.464844 L 101.464844 50.464844 L 101.464844 48.171875 L 99.238281 48.171875 L 99.238281 54.984375 L 101.464844 54.984375 "/>
<path style=" stroke:none;fill-rule:evenodd;fill:rgb(0%,52.198792%,24.699402%);fill-opacity:1;" d="M 108.367188 54.984375 L 110.59375 54.984375 L 110.59375 48.171875 L 108.367188 48.171875 Z M 108.367188 54.984375 "/>
<g clip-path="url(#clip2)" clip-rule="nonzero">
<path style=" stroke:none;fill-rule:evenodd;fill:rgb(0%,52.198792%,24.699402%);fill-opacity:1;" d="M 118.859375 50.15625 C 118.707031 48.964844 117.847656 47.996094 115.949219 47.996094 C 114.253906 47.996094 113.019531 48.722656 113.019531 50.15625 C 113.019531 52.757813 116.921875 52.050781 116.921875 53.085938 C 116.921875 53.398438 116.546875 53.59375 115.996094 53.59375 C 115.773438 53.59375 115.53125 53.527344 115.355469 53.417969 C 115.179688 53.308594 115.046875 53.132813 115.003906 52.867188 L 112.863281 52.867188 C 112.90625 54.101563 114.078125 55.160156 115.863281 55.160156 C 117.734375 55.160156 119.058594 54.386719 119.058594 52.800781 C 119.058594 50.332031 115.136719 50.972656 115.136719 49.957031 C 115.136719 49.691406 115.355469 49.558594 115.863281 49.558594 C 116.0625 49.558594 116.257813 49.605469 116.433594 49.691406 C 116.589844 49.757813 116.722656 49.914063 116.742188 50.15625 L 118.859375 50.15625 "/>
</g>
<path style=" stroke:none;fill-rule:evenodd;fill:rgb(0%,52.198792%,24.699402%);fill-opacity:1;" d="M 121.308594 54.984375 L 123.535156 54.984375 L 123.535156 48.171875 L 121.308594 48.171875 Z M 121.308594 54.984375 "/>
<path style=" stroke:none;fill-rule:evenodd;fill:rgb(0%,52.198792%,24.699402%);fill-opacity:1;" d="M 128.210938 48.171875 L 126.136719 48.171875 L 126.136719 54.984375 L 128.277344 54.984375 L 128.277344 52.824219 L 128.1875 51.28125 L 130.613281 54.984375 L 132.707031 54.984375 L 132.707031 48.171875 L 130.570313 48.171875 L 130.570313 50.332031 L 130.65625 51.875 L 128.210938 48.171875 "/>
<g clip-path="url(#clip3)" clip-rule="nonzero">
<path style=" stroke:none;fill-rule:evenodd;fill:rgb(0%,52.198792%,24.699402%);fill-opacity:1;" d="M 141.8125 51.234375 L 138.75 51.234375 L 138.75 52.710938 L 139.742188 52.710938 C 139.632813 53.175781 139.035156 53.484375 138.59375 53.484375 C 137.46875 53.484375 137.160156 52.601563 137.160156 51.65625 C 137.160156 50.441406 137.582031 49.648438 138.460938 49.648438 C 139.035156 49.648438 139.453125 49.957031 139.609375 50.507813 L 141.726563 50.507813 C 141.4375 48.832031 140.136719 47.996094 138.507813 47.996094 C 136.300781 47.996094 134.933594 49.492188 134.933594 51.65625 C 134.933594 54.035156 136.5 55.160156 138.242188 55.160156 C 139.300781 55.160156 139.917969 54.765625 140.292969 54.324219 L 140.378906 54.984375 L 141.8125 54.984375 L 141.8125 51.234375 "/>
</g>
<path style=" stroke:none;fill-rule:evenodd;fill:rgb(0%,52.198792%,24.699402%);fill-opacity:1;" d="M 150.765625 48.171875 L 148.671875 48.171875 L 148.671875 54.984375 L 150.808594 54.984375 L 150.808594 52.824219 L 150.722656 51.28125 L 153.144531 54.984375 L 155.242188 54.984375 L 155.242188 48.171875 L 153.101563 48.171875 L 153.101563 50.332031 L 153.191406 51.875 L 150.765625 48.171875 "/>
<path style=" stroke:none;fill-rule:evenodd;fill:rgb(0%,52.198792%,24.699402%);fill-opacity:1;" d="M 163.507813 54.984375 L 163.507813 53.398438 L 160.046875 53.398438 L 160.046875 52.316406 L 162.871094 52.316406 L 162.871094 50.730469 L 160.046875 50.730469 L 160.046875 49.757813 L 163.378906 49.757813 L 163.378906 48.171875 L 157.820313 48.171875 L 157.820313 54.984375 L 163.507813 54.984375 "/>
<path style=" stroke:none;fill-rule:evenodd;fill:rgb(0%,52.198792%,24.699402%);fill-opacity:1;" d="M 165.449219 49.957031 L 167.433594 49.957031 L 167.433594 54.984375 L 169.683594 54.984375 L 169.683594 49.957031 L 171.667969 49.957031 L 171.667969 48.171875 L 165.449219 48.171875 L 165.449219 49.957031 "/>
<path style=" stroke:none;fill-rule:evenodd;fill:rgb(0%,52.198792%,24.699402%);fill-opacity:1;" d="M 178.835938 48.171875 L 176.980469 48.171875 L 176.164063 52.382813 L 176.144531 52.382813 L 175.394531 48.171875 L 173.234375 48.171875 L 174.929688 54.984375 L 177.113281 54.984375 L 177.886719 51.015625 L 177.90625 51.015625 L 178.703125 54.984375 L 180.882813 54.984375 L 182.582031 48.171875 L 180.421875 48.171875 L 179.671875 52.382813 L 179.648438 52.382813 L 178.835938 48.171875 "/>
<g clip-path="url(#clip4)" clip-rule="nonzero">
<path style=" stroke:none;fill-rule:evenodd;fill:rgb(0%,52.198792%,24.699402%);fill-opacity:1;" d="M 187.785156 53.484375 C 186.726563 53.484375 186.460938 52.40625 186.460938 51.542969 C 186.460938 50.683594 186.75 49.648438 187.765625 49.648438 C 187.785156 49.648438 187.785156 49.648438 187.785156 49.648438 C 188.757813 49.648438 189.128906 50.617188 189.128906 51.542969 C 189.128906 52.667969 188.757813 53.484375 187.785156 53.484375 Z M 187.785156 47.996094 C 185.667969 47.996094 184.214844 49.382813 184.214844 51.523438 C 184.214844 53.835938 185.648438 55.160156 187.785156 55.160156 C 189.8125 55.160156 191.355469 53.859375 191.355469 51.542969 C 191.355469 49.738281 190.210938 47.996094 187.785156 47.996094 "/>
</g>
<path style=" stroke:none;fill-rule:evenodd;fill:rgb(0%,52.198792%,24.699402%);fill-opacity:1;" d="M 196.714844 51.101563 C 196.691406 51.101563 196.671875 51.101563 196.628906 51.101563 L 195.746094 51.101563 L 195.746094 49.757813 C 195.746094 49.757813 196.496094 49.757813 196.714844 49.757813 C 196.757813 49.757813 196.78125 49.757813 196.78125 49.757813 C 197.3125 49.757813 197.683594 49.980469 197.683594 50.464844 C 197.683594 50.925781 197.355469 51.101563 196.714844 51.101563 Z M 199.757813 53.574219 C 199.757813 52.207031 199.316406 52.027344 198.613281 51.765625 C 199.40625 51.542969 199.757813 50.882813 199.757813 50.113281 C 199.757813 48.789063 199.007813 48.171875 196.738281 48.171875 C 196.738281 48.171875 196.738281 48.171875 196.714844 48.171875 C 196.496094 48.171875 193.519531 48.171875 193.519531 48.171875 L 193.519531 54.984375 L 195.746094 54.984375 L 195.746094 52.601563 L 196.429688 52.601563 C 196.539063 52.601563 196.628906 52.601563 196.714844 52.601563 C 197.507813 52.667969 197.617188 52.976563 197.617188 53.792969 C 197.617188 54.386719 197.683594 54.828125 197.730469 54.984375 L 200 54.984375 L 200 54.765625 C 199.734375 54.765625 199.757813 54.453125 199.757813 53.574219 "/>
<g clip-path="url(#clip5)" clip-rule="nonzero">
<path style=" stroke:none;fill-rule:evenodd;fill:rgb(0%,52.198792%,24.699402%);fill-opacity:1;" d="M 202.226563 54.984375 L 204.453125 54.984375 L 204.453125 52.824219 L 204.984375 52.273438 L 206.617188 54.984375 L 209.28125 54.984375 L 206.550781 50.730469 L 209.019531 48.171875 L 206.417969 48.171875 L 204.453125 50.375 L 204.453125 48.171875 L 202.226563 48.171875 L 202.226563 54.984375 "/>
</g>
<path style=" stroke:none;fill-rule:evenodd;fill:rgb(0%,52.198792%,24.699402%);fill-opacity:1;" d="M 5 5.816406 L 51.347656 5.816406 C 52.847656 5.816406 54.082031 7.996094 54.082031 10.667969 L 54.082031 49.472656 C 54.082031 52.140625 52.847656 54.324219 51.347656 54.324219 L 5 54.324219 C 3.5 54.324219 2.289063 52.140625 2.289063 49.472656 L 2.289063 10.667969 C 2.289063 7.996094 3.5 5.816406 5 5.816406 "/>
<g clip-path="url(#clip6)" clip-rule="nonzero">
<path style="fill:none;stroke-width:6.125;stroke-linecap:butt;stroke-linejoin:miter;stroke:rgb(0%,52.198792%,24.699402%);stroke-opacity:1;stroke-miterlimit:4;" d="M 50 493.435938 L 513.476563 493.435938 C 528.476563 493.435938 540.820313 471.639063 540.820313 444.920313 L 540.820313 56.873438 C 540.820313 30.19375 528.476563 8.357813 513.476563 8.357813 L 50 8.357813 C 35 8.357813 22.890625 30.19375 22.890625 56.873438 L 22.890625 444.920313 C 22.890625 471.639063 35 493.435938 50 493.435938 Z M 50 493.435938 " transform="matrix(0.1,0,0,-0.1,0,55.16)"/>
</g>
<g clip-path="url(#clip7)" clip-rule="nonzero">
<path style=" stroke:none;fill-rule:evenodd;fill:rgb(100%,100%,100%);fill-opacity:1;" d="M 9.300781 0.613281 L 205.203125 0.613281 C 207.386719 0.613281 209.171875 1.625 209.171875 2.859375 L 209.171875 43.230469 C 209.171875 44.445313 207.386719 45.457031 205.203125 45.457031 L 9.300781 45.457031 C 7.117188 45.457031 5.332031 44.445313 5.332031 43.230469 L 5.332031 2.859375 C 5.332031 1.625 7.117188 0.613281 9.300781 0.613281 "/>
</g>
<g clip-path="url(#clip8)" clip-rule="nonzero">
<path style="fill:none;stroke-width:12.249;stroke-linecap:butt;stroke-linejoin:miter;stroke:rgb(0%,52.198792%,24.699402%);stroke-opacity:1;stroke-miterlimit:4;" d="M 93.007813 545.467188 L 2052.03125 545.467188 C 2073.867188 545.467188 2091.71875 535.35 2091.71875 523.00625 L 2091.71875 119.295313 C 2091.71875 107.146875 2073.867188 97.029688 2052.03125 97.029688 L 93.007813 97.029688 C 71.171875 97.029688 53.320313 107.146875 53.320313 119.295313 L 53.320313 523.00625 C 53.320313 535.35 71.171875 545.467188 93.007813 545.467188 Z M 93.007813 545.467188 " transform="matrix(0.1,0,0,-0.1,0,55.16)"/>
</g>
<path style=" stroke:none;fill-rule:evenodd;fill:rgb(0%,52.198792%,24.699402%);fill-opacity:1;" d="M 204.277344 7.996094 C 204.191406 7.996094 204.101563 7.996094 203.96875 7.996094 C 203.660156 7.996094 203.417969 7.996094 203.265625 7.996094 L 203.265625 10.578125 L 203.925781 10.578125 L 203.925781 9.652344 L 204.078125 9.652344 L 204.234375 9.675781 C 204.234375 9.675781 204.257813 9.675781 204.277344 9.675781 L 204.277344 9.1875 C 204.257813 9.1875 204.210938 9.1875 204.191406 9.1875 L 203.925781 9.1875 L 203.925781 8.4375 L 204.101563 8.4375 C 204.167969 8.4375 204.210938 8.460938 204.277344 8.460938 Z M 202.910156 7.933594 C 202.535156 8.308594 202.359375 8.769531 202.359375 9.277344 C 202.359375 9.804688 202.558594 10.269531 202.933594 10.644531 C 203.285156 11.019531 203.75 11.21875 204.277344 11.21875 L 204.277344 11.59375 C 203.617188 11.59375 203.066406 11.371094 202.625 10.929688 C 202.183594 10.492188 201.964844 9.9375 201.964844 9.277344 C 201.964844 8.59375 202.203125 8.042969 202.691406 7.578125 C 203.132813 7.160156 203.660156 6.960938 204.277344 6.960938 L 204.277344 7.359375 C 203.75 7.359375 203.285156 7.558594 202.910156 7.933594 Z M 204.277344 9.675781 C 204.34375 9.675781 204.410156 9.695313 204.453125 9.71875 C 204.542969 9.742188 204.609375 9.804688 204.628906 9.894531 C 204.652344 9.960938 204.675781 10.050781 204.675781 10.203125 C 204.695313 10.359375 204.695313 10.492188 204.71875 10.578125 L 205.359375 10.578125 L 205.335938 10.492188 C 205.335938 10.46875 205.335938 10.445313 205.316406 10.421875 C 205.316406 10.402344 205.316406 10.378906 205.316406 10.335938 L 205.316406 10.113281 C 205.316406 9.851563 205.246094 9.652344 205.09375 9.542969 C 205.003906 9.476563 204.894531 9.429688 204.71875 9.386719 C 204.894531 9.367188 205.050781 9.320313 205.183594 9.210938 C 205.292969 9.121094 205.359375 8.96875 205.359375 8.75 C 205.359375 8.460938 205.246094 8.261719 205.003906 8.128906 C 204.875 8.066406 204.71875 8.019531 204.5 7.996094 C 204.476563 7.996094 204.410156 7.996094 204.277344 7.996094 L 204.277344 8.460938 C 204.367188 8.460938 204.433594 8.484375 204.5 8.503906 C 204.628906 8.550781 204.695313 8.660156 204.695313 8.792969 C 204.695313 8.945313 204.652344 9.035156 204.5625 9.101563 C 204.5 9.144531 204.386719 9.1875 204.277344 9.1875 Z M 204.277344 11.21875 C 204.808594 11.21875 205.246094 11.019531 205.625 10.644531 C 205.996094 10.269531 206.195313 9.804688 206.195313 9.277344 C 206.195313 8.769531 205.996094 8.308594 205.625 7.933594 C 205.246094 7.558594 204.808594 7.359375 204.277344 7.359375 L 204.277344 6.960938 C 204.917969 6.960938 205.46875 7.183594 205.910156 7.644531 C 206.371094 8.085938 206.59375 8.636719 206.59375 9.277344 C 206.59375 9.9375 206.371094 10.492188 205.910156 10.929688 C 205.445313 11.371094 204.917969 11.59375 204.277344 11.59375 L 204.277344 11.21875 "/>
<path style=" stroke:none;fill-rule:evenodd;fill:rgb(0%,52.198792%,24.699402%);fill-opacity:1;" d="M 62.4375 19.089844 C 62.28125 20.367188 61.246094 20.144531 60.628906 19.707031 C 60.035156 19.242188 57.324219 18.230469 56.59375 14.679688 C 55.867188 11.152344 56.199219 9.167969 56.484375 8.042969 C 56.769531 6.941406 56.925781 6.476563 58.449219 6.433594 C 59.96875 6.367188 69.980469 6.125 71.457031 6.078125 C 72.910156 6.035156 73.75 6.519531 74.144531 7.777344 C 74.542969 9.011719 75.226563 11.261719 75.226563 12.101563 C 75.226563 12.960938 74.695313 15.539063 73.417969 17.898438 C 72.117188 20.257813 71.101563 20.941406 70.773438 19.992188 C 70.417969 19.023438 70.816406 16.664063 71.101563 15.582031 C 71.390625 14.523438 71.832031 12.320313 70.59375 11.703125 C 69.359375 11.085938 67.90625 10.46875 68.191406 11.945313 C 68.457031 13.398438 69.074219 18.164063 68.347656 23.695313 C 67.617188 29.1875 67.792969 32.339844 68.300781 35.492188 C 68.808594 38.644531 69.425781 40.609375 68.414063 40.609375 C 67.398438 40.609375 63.519531 40.609375 62.679688 40.609375 C 61.820313 40.609375 61.421875 40.277344 61.203125 37.960938 C 60.984375 35.667969 61.597656 32.890625 62.679688 27.886719 C 63.738281 22.902344 64.753906 16.441406 64.179688 13.46875 C 63.628906 10.46875 60.1875 12.320313 60.804688 14.570313 C 61.421875 16.839844 62.898438 17.171875 62.4375 19.089844 "/>
<path style=" stroke:none;fill-rule:evenodd;fill:rgb(0%,52.198792%,24.699402%);fill-opacity:1;" d="M 80.164063 15.539063 C 80.097656 14.347656 80.097656 12.496094 80.164063 11.660156 C 80.230469 10.796875 80.054688 10.203125 81.398438 10.421875 C 81.839844 10.492188 82.324219 10.667969 82.789063 10.929688 C 83.738281 11.4375 84.640625 12.230469 85.015625 12.960938 C 85.566406 14.015625 85.632813 14.636719 85.125 15.074219 C 84.75 15.40625 83.714844 16.046875 82.789063 16.488281 C 82.457031 16.640625 82.128906 16.753906 81.863281 16.839844 C 80.847656 17.105469 80.230469 16.730469 80.164063 15.539063 Z M 82.457031 19.484375 C 82.546875 19.398438 82.65625 19.308594 82.789063 19.199219 C 84.089844 18.183594 87.15625 16.441406 88.390625 15.933594 C 89.582031 15.429688 90.328125 12.871094 90.417969 10.378906 L 90.417969 9.519531 C 90.417969 9.476563 90.417969 9.429688 90.394531 9.410156 C 90.285156 6.652344 88.433594 5.683594 87.023438 5.394531 C 85.984375 5.199219 84.507813 5.152344 82.789063 5.285156 C 82.171875 5.332031 81.511719 5.417969 80.847656 5.527344 C 78.3125 5.902344 78.136719 6.941406 77.121094 8.4375 C 76.109375 9.960938 75.664063 15.207031 75.492188 22.507813 C 75.492188 22.726563 75.492188 22.949219 75.46875 23.144531 L 75.46875 24.910156 C 75.554688 30.597656 76.546875 33.617188 77.738281 36.550781 C 79.105469 39.878906 81.003906 40.609375 82.082031 40.609375 C 82.28125 40.609375 82.523438 40.609375 82.789063 40.609375 C 83.980469 40.628906 85.65625 40.652344 86.292969 40.609375 C 87.089844 40.542969 87.773438 40.144531 88.828125 37.519531 C 89.886719 34.875 89.886719 29.847656 89.886719 27.863281 C 89.886719 25.835938 89.558594 24.535156 88.609375 23.917969 C 87.640625 23.300781 87.089844 23.917969 87.089844 24.644531 C 87.089844 25.371094 87.023438 26.234375 87.089844 28.964844 C 87.132813 31.722656 85.855469 33.574219 84.046875 33.574219 C 83.582031 33.574219 83.164063 33.355469 82.789063 32.980469 C 81.773438 31.941406 81.222656 29.824219 81.179688 28.460938 C 81.136719 26.9375 81.3125 25.859375 82.789063 24.492188 C 83.097656 24.203125 83.449219 23.894531 83.867188 23.585938 C 86.359375 21.710938 88.765625 20.367188 89.382813 20.257813 C 90.019531 20.144531 89.953125 18.734375 89.886719 18.230469 C 89.84375 17.722656 89.734375 17.433594 89.117188 17.566406 C 88.476563 17.679688 85.167969 19.53125 84.046875 20.433594 C 83.605469 20.785156 83.164063 21.140625 82.789063 21.382813 C 82.238281 21.734375 81.773438 21.890625 81.464844 21.558594 C 80.960938 20.984375 81.464844 20.433594 82.457031 19.484375 "/>
<path style=" stroke:none;fill-rule:evenodd;fill:rgb(0%,52.198792%,24.699402%);fill-opacity:1;" d="M 107.703125 8.042969 C 107.660156 7.050781 108.167969 5.96875 109.445313 6.078125 C 110.746094 6.191406 112.664063 5.792969 113.347656 7.601563 C 114.011719 9.410156 114.40625 11.152344 114.847656 14.8125 C 115.3125 18.449219 117.054688 21.097656 119.082031 21.226563 C 121.109375 21.339844 120.382813 18.824219 120.207031 18.183594 C 119.476563 15.472656 116.433594 11.304688 115.863281 10.910156 C 115.3125 10.535156 114.628906 9.519531 115.421875 8.550781 C 116.214844 7.601563 117.558594 5.75 119.191406 5.75 C 120.824219 5.75 122.453125 6.433594 122.386719 12.164063 C 122.34375 17.898438 122.167969 39.019531 122.167969 39.703125 C 122.167969 40.386719 121.835938 40.609375 121.441406 40.609375 C 121.042969 40.609375 118.683594 40.609375 118.289063 40.609375 C 117.890625 40.609375 116.613281 40.828125 116.765625 38.976563 C 116.941406 37.125 116.832031 28.503906 115.199219 23.917969 C 113.570313 19.308594 111.980469 19.640625 111.980469 19.640625 C 111.980469 19.640625 112.15625 38.007813 112.15625 39.019531 C 112.15625 40.035156 112.046875 40.609375 111.472656 40.609375 C 110.921875 40.609375 108.785156 40.609375 108.277344 40.609375 C 107.769531 40.609375 107.375 40.320313 107.59375 38.867188 C 107.8125 37.390625 108.9375 31.480469 108.5625 20.324219 C 108.386719 15.472656 107.769531 9.058594 107.703125 8.042969 "/>
<path style=" stroke:none;fill-rule:evenodd;fill:rgb(0%,52.198792%,24.699402%);fill-opacity:1;" d="M 147.324219 19.308594 C 147.546875 19.925781 147.589844 20.699219 148.316406 20.257813 C 149.066406 19.816406 153.277344 16.707031 154.800781 14.523438 C 156.320313 12.320313 156.71875 10.136719 155.636719 8.152344 C 154.582031 6.191406 152.773438 5.617188 148.957031 6.078125 C 145.121094 6.542969 143.84375 6.257813 143.050781 8.503906 C 142.253906 10.753906 140.335938 16.773438 141.792969 27.003906 C 143.269531 37.234375 143.996094 40.828125 149.289063 40.828125 C 152.726563 40.828125 153.71875 38.359375 154.335938 34.082031 C 154.976563 29.804688 155.085938 26.671875 154.800781 24.933594 C 154.511719 23.191406 154.074219 23.191406 153.390625 22.859375 C 152.726563 22.507813 151.472656 22.332031 151.359375 23.808594 C 151.25 25.261719 151.558594 25.4375 151.714844 27.246094 C 151.867188 29.363281 151.097656 31.324219 149.289063 31.546875 C 147.480469 31.765625 144.503906 26.960938 144.503906 20.832031 C 144.503906 14.679688 145.738281 10.359375 147.148438 10.359375 C 148.5625 10.359375 150.390625 10.710938 150.480469 12.894531 C 150.523438 14.523438 149.15625 15.914063 148.097656 16.992188 C 147.039063 18.074219 147.105469 18.691406 147.324219 19.308594 "/>
<path style=" stroke:none;fill-rule:evenodd;fill:rgb(0%,52.198792%,24.699402%);fill-opacity:1;" d="M 97.890625 19.308594 C 98.113281 19.925781 98.15625 20.699219 98.90625 20.257813 C 99.632813 19.816406 103.847656 16.707031 105.34375 14.523438 C 106.867188 12.320313 107.261719 10.136719 106.183594 8.152344 C 105.125 6.191406 103.339844 5.617188 99.523438 6.078125 C 95.6875 6.542969 94.410156 6.257813 93.613281 8.503906 C 92.820313 10.753906 90.902344 16.773438 92.378906 27.003906 C 93.835938 37.234375 94.5625 40.828125 99.855469 40.828125 C 103.292969 40.828125 104.285156 38.359375 104.925781 34.082031 C 105.523438 29.804688 105.632813 26.671875 105.34375 24.933594 C 105.058594 23.191406 104.640625 23.191406 103.976563 22.859375 C 103.292969 22.507813 102.058594 22.332031 101.925781 23.808594 C 101.816406 25.261719 102.125 25.4375 102.28125 27.246094 C 102.433594 29.363281 101.664063 31.324219 99.855469 31.546875 C 98.046875 31.765625 95.070313 26.960938 95.070313 20.832031 C 95.070313 14.679688 96.304688 10.359375 97.714844 10.359375 C 99.128906 10.359375 100.957031 10.710938 101.046875 12.894531 C 101.089844 14.523438 99.746094 15.914063 98.664063 16.992188 C 97.605469 18.074219 97.671875 18.691406 97.890625 19.308594 "/>
<path style=" stroke:none;fill-rule:evenodd;fill:rgb(0%,52.198792%,24.699402%);fill-opacity:1;" d="M 134.890625 30.488281 C 134.316406 32.382813 132.90625 31.371094 132.421875 30.246094 C 132.308594 30.046875 132.222656 29.738281 132.089844 29.363281 C 131.605469 27.796875 130.964844 25.042969 130.546875 23.519531 C 130.039063 21.667969 128.695313 21.957031 128.363281 21.097656 C 127.855469 19.199219 128.03125 20.144531 128.03125 17.941406 C 128.03125 15.761719 129.378906 11.304688 131.515625 11.484375 C 131.714844 11.503906 131.914063 11.527344 132.089844 11.570313 C 134.007813 12.054688 135.773438 14.171875 136.125 18.515625 C 136.5 23.300781 135.441406 28.570313 134.890625 30.488281 Z M 134.097656 6.078125 C 133.609375 6.101563 132.882813 6.144531 132.089844 6.191406 C 131.140625 6.234375 130.0625 6.277344 129.15625 6.257813 C 127.460938 6.191406 127.128906 6.941406 126.730469 7.644531 C 126.335938 8.375 124.925781 12.277344 124.769531 20.765625 C 124.746094 20.832031 124.746094 20.898438 124.746094 20.964844 L 124.746094 22.042969 C 124.878906 29.980469 127.503906 36.75 128.296875 38.535156 C 129.15625 40.386719 130.546875 40.609375 131.121094 40.609375 C 131.316406 40.609375 131.671875 40.609375 132.089844 40.609375 C 132.90625 40.609375 133.898438 40.609375 134.273438 40.609375 C 134.824219 40.609375 135.484375 40.078125 135.949219 39.308594 C 138.375 35.273438 139.167969 28.351563 139.433594 22.859375 C 139.71875 17.347656 138.925781 11.8125 138.265625 8.945313 C 137.601563 6.078125 135.175781 6.035156 134.097656 6.078125 "/>
<path style=" stroke:none;fill-rule:evenodd;fill:rgb(0%,52.198792%,24.699402%);fill-opacity:1;" d="M 163.132813 27.886719 C 163.023438 27.929688 162.9375 27.953125 162.828125 27.976563 C 161.636719 28.351563 160.003906 28.964844 159.761719 28.351563 C 159.476563 27.6875 161.148438 26.828125 162.339844 26.453125 C 162.496094 26.410156 162.648438 26.34375 162.828125 26.277344 C 164.015625 25.8125 165.585938 25.109375 165.890625 26.277344 C 166.222656 27.621094 164.328125 27.578125 163.132813 27.886719 Z M 160.027344 23.300781 C 160.09375 21.957031 159.804688 18.980469 161.21875 16.222656 C 161.835938 14.988281 162.363281 14.347656 162.828125 14.171875 C 163.398438 13.996094 163.839844 14.589844 164.195313 15.871094 C 164.808594 18.183594 165.207031 20.941406 165.316406 21.890625 C 165.429688 22.859375 165.316406 23.300781 164.523438 23.519531 C 164.148438 23.632813 163.464844 23.851563 162.828125 24.09375 C 162.1875 24.316406 161.546875 24.535156 161.21875 24.644531 C 160.554688 24.863281 159.980469 24.644531 160.027344 23.300781 Z M 171.007813 31.4375 C 171.007813 25.835938 168.867188 12.453125 168.140625 9.960938 C 167.414063 7.492188 166.90625 6.191406 165.539063 6.078125 C 164.371094 5.96875 163.796875 6.058594 162.828125 6.078125 C 162.671875 6.078125 162.515625 6.078125 162.339844 6.078125 C 161.039063 6.078125 159.980469 8.285156 158.171875 14.679688 C 156.367188 21.097656 156.101563 35.867188 155.992188 38.074219 C 155.878906 40.277344 156.386719 40.652344 157.003906 40.609375 C 157.621094 40.542969 157.667969 40.609375 158.503906 40.609375 C 159.34375 40.609375 158.96875 37.234375 158.902344 35.714844 C 158.855469 34.191406 158.96875 32.671875 160.777344 31.503906 C 161.4375 31.0625 162.164063 30.773438 162.828125 30.574219 C 163.972656 30.246094 164.964844 30.222656 165.316406 30.246094 C 165.890625 30.3125 165.933594 31.503906 165.78125 32.230469 C 165.605469 32.957031 165.097656 33.859375 164.480469 34.808594 C 163.863281 35.78125 163.070313 37.277344 163.246094 38.691406 C 163.421875 40.101563 163.929688 40.609375 164.808594 40.609375 L 169.882813 40.609375 C 171.183594 40.609375 171.007813 37.058594 171.007813 31.4375 "/>
<path style=" stroke:none;fill-rule:evenodd;fill:rgb(0%,52.198792%,24.699402%);fill-opacity:1;" d="M 195.480469 27.886719 C 195.394531 27.929688 195.28125 27.953125 195.171875 27.976563 C 194.003906 28.351563 192.371094 28.964844 192.105469 28.351563 C 191.820313 27.6875 193.519531 26.828125 194.6875 26.453125 C 194.839844 26.410156 194.996094 26.34375 195.171875 26.277344 C 196.363281 25.8125 197.949219 25.109375 198.238281 26.277344 C 198.566406 27.621094 196.671875 27.578125 195.480469 27.886719 Z M 192.394531 23.300781 C 192.4375 21.957031 192.152344 18.980469 193.5625 16.222656 C 194.179688 14.988281 194.730469 14.347656 195.171875 14.171875 C 195.746094 13.996094 196.207031 14.589844 196.539063 15.871094 C 197.15625 18.183594 197.554688 20.941406 197.664063 21.890625 C 197.796875 22.859375 197.664063 23.300781 196.890625 23.519531 C 196.496094 23.632813 195.835938 23.851563 195.171875 24.09375 C 194.53125 24.316406 193.894531 24.535156 193.5625 24.644531 C 192.902344 24.863281 192.328125 24.644531 192.394531 23.300781 Z M 203.351563 31.4375 C 203.351563 25.835938 201.210938 12.453125 200.484375 9.960938 C 199.757813 7.492188 199.25 6.191406 197.90625 6.078125 C 196.738281 5.96875 196.140625 6.058594 195.171875 6.078125 C 195.019531 6.078125 194.863281 6.078125 194.6875 6.078125 C 193.386719 6.078125 192.328125 8.285156 190.519531 14.679688 C 188.710938 21.097656 188.445313 35.867188 188.335938 38.074219 C 188.226563 40.277344 188.734375 40.652344 189.351563 40.609375 C 189.96875 40.542969 190.035156 40.609375 190.871094 40.609375 C 191.710938 40.609375 191.3125 37.234375 191.269531 35.714844 C 191.203125 34.191406 191.3125 32.671875 193.121094 31.503906 C 193.78125 31.0625 194.511719 30.773438 195.171875 30.574219 C 196.320313 30.246094 197.3125 30.222656 197.683594 30.246094 C 198.238281 30.3125 198.304688 31.503906 198.125 32.230469 C 197.949219 32.957031 197.441406 33.859375 196.824219 34.808594 C 196.207031 35.78125 195.4375 37.277344 195.589844 38.691406 C 195.769531 40.101563 196.273438 40.609375 197.15625 40.609375 L 202.226563 40.609375 C 203.527344 40.609375 203.351563 37.058594 203.351563 31.4375 "/>
<path style=" stroke:none;fill-rule:evenodd;fill:rgb(0%,52.198792%,24.699402%);fill-opacity:1;" d="M 180.464844 35.382813 C 179.78125 35.492188 179.496094 34.808594 179.449219 34.125 C 179.386719 33.464844 178.546875 31.257813 177.644531 31.257813 C 175.460938 31.257813 174.996094 38.757813 178.769531 38.644531 C 181.699219 38.558594 184.234375 36.285156 184.234375 32.230469 C 184.234375 28.171875 180.398438 24.203125 176.980469 20.875 C 173.542969 17.566406 172.066406 8.066406 174.050781 7.269531 C 176.011719 6.476563 178.414063 5.75 183.332031 5.75 C 188.226563 5.75 188.84375 6.875 188.511719 9.519531 C 188.160156 12.164063 186.925781 16.488281 184.28125 16.597656 C 181.632813 16.730469 182.273438 15.007813 182.933594 14.0625 C 183.597656 13.113281 184.234375 11.371094 182.097656 10.027344 C 179.957031 8.660156 176.871094 8.261719 176.695313 10.753906 C 176.519531 13.222656 178.214844 14.8125 181.632813 18.007813 C 185.074219 21.226563 187.71875 24.492188 187.609375 29.40625 C 187.5 34.367188 186.417969 40.785156 183.375 40.828125 C 180.335938 40.894531 176.1875 41.511719 174.378906 39.308594 C 172.945313 37.566406 171.691406 32.847656 173.210938 27.578125 C 174.6875 22.441406 176.34375 23.011719 177.929688 24.996094 C 179.496094 26.960938 180.574219 30.15625 180.90625 32.339844 C 181.238281 34.589844 181.128906 35.273438 180.464844 35.382813 "/>
<path style=" stroke:none;fill-rule:evenodd;fill:rgb(100%,100%,100%);fill-opacity:1;" d="M 3.324219 4.140625 L 49.671875 4.140625 C 51.171875 4.140625 52.382813 6.324219 52.382813 8.988281 L 52.382813 47.796875 C 52.382813 50.464844 51.171875 52.648438 49.671875 52.648438 L 3.324219 52.648438 C 1.824219 52.648438 0.613281 50.464844 0.613281 47.796875 L 0.613281 8.988281 C 0.613281 6.324219 1.824219 4.140625 3.324219 4.140625 "/>
<g clip-path="url(#clip9)" clip-rule="nonzero">
<path style="fill:none;stroke-width:12.249;stroke-linecap:butt;stroke-linejoin:miter;stroke:rgb(0%,52.198792%,24.699402%);stroke-opacity:1;stroke-miterlimit:4;" d="M 33.242188 510.19375 L 496.71875 510.19375 C 511.71875 510.19375 523.828125 488.357813 523.828125 461.717188 L 523.828125 73.63125 C 523.828125 46.951563 511.71875 25.115625 496.71875 25.115625 L 33.242188 25.115625 C 18.242188 25.115625 6.132813 46.951563 6.132813 73.63125 L 6.132813 461.717188 C 6.132813 488.357813 18.242188 510.19375 33.242188 510.19375 Z M 33.242188 510.19375 " transform="matrix(0.1,0,0,-0.1,0,55.16)"/>
</g>
<path style=" stroke:none;fill-rule:evenodd;fill:rgb(0%,52.198792%,24.699402%);fill-opacity:1;" d="M 44.863281 28.945313 L 38.976563 34.832031 L 26.828125 22.683594 L 13.511719 34.433594 L 8.132813 28.414063 L 26.984375 11.085938 L 44.863281 28.945313 "/>
<path style=" stroke:none;fill-rule:evenodd;fill:rgb(0%,52.198792%,24.699402%);fill-opacity:1;" d="M 35.800781 36.464844 C 35.800781 31.390625 31.65625 27.269531 26.585938 27.269531 C 21.492188 27.269531 17.347656 31.390625 17.347656 36.464844 C 17.347656 41.554688 21.492188 45.703125 26.585938 45.703125 C 31.65625 45.703125 35.800781 41.554688 35.800781 36.464844 "/>
</g>
</svg>
